<?xml version="1.0" encoding="UTF-8"?>
<svg width="139px" height="41px" viewBox="0 0 139 41" version="1.1" xmlns="http://www.w3.org/2000/svg" xmlns:xlink="http://www.w3.org/1999/xlink">
    <!-- Generator: Sketch 52.5 (67469) - http://www.bohemiancoding.com/sketch -->
    <title>Group 7</title>
    <desc>Created with Sketch.</desc>
    <g id="dApp" stroke="none" stroke-width="1" fill="none" fill-rule="evenodd">
        <g id="10.5″-iPad-Pro" transform="translate(-348.000000, -81.000000)" fill="#8212F2">
            <g id="Group-7" transform="translate(346.500000, 74.000000)">
                <g id="Group-5-Copy" transform="translate(0.717391, 12.783111)">
                    <path d="M13.3468978,24.9000648 C12.2589782,23.3984293 11.4238975,21.7550824 10.8416306,19.9699748 C10.2593638,18.1848672 9.96823473,16.349988 9.96823473,14.4652822 C9.96823473,12.5805764 10.2593638,10.7456972 10.8416306,8.96058961 C11.4238975,7.17548205 12.2589782,5.53213514 13.3468978,4.03049959 L15.9211173,5.29462524 C14.9557802,6.62770986 14.2164656,8.0718632 13.7031514,9.62712859 C13.1898372,11.182394 12.933184,12.7950957 12.933184,14.4652822 C12.933184,16.1354687 13.1898372,17.7481704 13.7031514,19.3034358 C14.2164656,20.8587012 14.9557802,22.3028545 15.9211173,23.6359392 L13.3468978,24.9000648 Z" id="("></path>
                    <path d="M5.67164404,28.8131083 C4.17575454,26.7483594 3.02751856,24.4887574 2.22690165,22.0342345 C1.42628474,19.5797116 1.02598229,17.0567527 1.02598229,14.4652822 C1.02598229,11.8738117 1.42628474,9.35085279 2.22690165,6.89632989 C3.02751856,4.44180699 4.17575454,2.18220499 5.67164404,0.117456112 L9.21119585,1.85562888 C7.88385728,3.68862023 6.86729974,5.67433107 6.16149273,7.81282098 C5.45568571,9.9513109 5.1027875,12.1687758 5.1027875,14.4652822 C5.1027875,16.7617886 5.45568571,18.9792535 6.16149273,21.1177434 C6.86729974,23.2562333 7.88385728,25.2419442 9.21119585,27.0749355 L5.67164404,28.8131083 Z" id="("></path>
                    <path d="M130.051552,14.4652822 C130.051552,16.349988 129.760423,18.1848672 129.178156,19.9699748 C128.595889,21.7550824 127.760809,23.3984293 126.672889,24.9000648 L124.09867,23.6359392 C125.064007,22.3028545 125.803321,20.8587012 126.316635,19.3034358 C126.82995,17.7481704 127.086603,16.1354687 127.086603,14.4652822 C127.086603,12.7950957 126.82995,11.182394 126.316635,9.62712859 C125.803321,8.0718632 125.064007,6.62770986 124.09867,5.29462524 L126.672889,4.03049959 C127.760809,5.53213514 128.595889,7.17548205 129.178156,8.96058961 C129.760423,10.7456972 130.051552,12.5805764 130.051552,14.4652822 Z" id=")"></path>
                    <path d="M138.993805,14.4652822 C138.993805,17.0567527 138.593502,19.5797116 137.792885,22.0342345 C136.992268,24.4887574 135.844032,26.7483594 134.348143,28.8131083 L130.808591,27.0749355 C132.13593,25.2419442 133.152487,23.2562333 133.858294,21.1177434 C134.564101,18.9792535 134.916999,16.7617886 134.916999,14.4652822 C134.916999,12.1687758 134.564101,9.9513109 133.858294,7.81282098 C133.152487,5.67433107 132.13593,3.68862023 130.808591,1.85562888 L134.348143,0.117456112 C135.844032,2.18220499 136.992268,4.44180699 137.792885,6.89632989 C138.593502,9.35085279 138.993805,11.8738117 138.993805,14.4652822 Z" id=")"></path>
                </g>
                <g id="Group-6-Copy" transform="translate(28.000000, 0.283111)" font-family="AvenirNext-Medium, Avenir Next" font-weight="400">
                    <text id="WALLET" font-size="20" letter-spacing="1">
                        <tspan x="2.21" y="20.7528742">WALLE</tspan>
                        <tspan x="73.41" y="20.7528742">T</tspan>
                    </text>
                    <text id="NOTIFY" font-size="24" letter-spacing="-0.5">
                        <tspan x="0.274" y="45.7528742">NOTIF</tspan>
                        <tspan x="69.75" y="45.7528742">Y</tspan>
                    </text>
                </g>
            </g>
        </g>
    </g>
</svg>