<?xml version="1.0" encoding="UTF-8"?>
<svg width="18px" height="18px" viewBox="0 0 18 18" version="1.1" xmlns="http://www.w3.org/2000/svg" xmlns:xlink="http://www.w3.org/1999/xlink">
    <!-- Generator: Sketch 52.5 (67469) - http://www.bohemiancoding.com/sketch -->
    <title>Rectangle 2</title>
    <desc>Created with Sketch.</desc>
    <g id="dApp" stroke="none" stroke-width="1" fill="none" fill-rule="evenodd">
        <g id="10.5″-iPad-Pro" transform="translate(-217.000000, -405.000000)" fill="#8212F2">
            <g id="Group-4" transform="translate(194.000000, 384.000000)">
                <path d="M34,28 L40.2244392,28 C40.6527696,28 41,28.4477153 41,29 L41,31 C41,31.5522847 40.6527696,32 40.2244392,32 L34,32 L34,38 C34,38.5522847 33.5522847,39 33,39 L31,39 C30.4477153,39 30,38.5522847 30,38 L30,32 L23.7755608,32 C23.3472304,32 23,31.5522847 23,31 L23,29 C23,28.4477153 23.3472304,28 23.7755608,28 L30,28 L30,22 C30,21.4477153 30.4477153,21 31,21 L33,21 C33.5522847,21 34,21.4477153 34,22 L34,28 Z" id="Rectangle-2"></path>
            </g>
        </g>
    </g>
</svg>