<?xml version="1.0" encoding="UTF-8"?>
<svg width="12px" height="12px" viewBox="0 0 12 12" version="1.1" xmlns="http://www.w3.org/2000/svg" xmlns:xlink="http://www.w3.org/1999/xlink">
    <!-- Generator: Sketch 52.5 (67469) - http://www.bohemiancoding.com/sketch -->
    <title>Rectangle 2</title>
    <desc>Created with Sketch.</desc>
    <g id="dApp" stroke="none" stroke-width="1" fill="none" fill-rule="evenodd">
        <g id="10.5″-iPad-Pro" transform="translate(-553.000000, -410.000000)" fill="#8212F2">
            <g id="Group-5" transform="translate(543.000000, 396.000000)">
                <path d="M17.5,18.5 L21.4829595,18.5 C21.7685131,18.5 22,18.8357864 22,19.25 L22,20.75 C22,21.1642136 21.7685131,21.5 21.4829595,21.5 L17.5,21.5 L17.5,25 C17.5,25.5522847 17.0522847,26 16.5,26 L15.5,26 C14.9477153,26 14.5,25.5522847 14.5,25 L14.5,21.5 L10.5170405,21.5 C10.2314869,21.5 10,21.1642136 10,20.75 L10,19.25 C10,18.8357864 10.2314869,18.5 10.5170405,18.5 L14.5,18.5 L14.5,15 C14.5,14.4477153 14.9477153,14 15.5,14 L16.5,14 C17.0522847,14 17.5,14.4477153 17.5,15 L17.5,18.5 Z" id="Rectangle-2"></path>
            </g>
        </g>
    </g>
</svg>